<svg width="426" height="261" viewBox="0 0 426 261" fill="none" xmlns="http://www.w3.org/2000/svg">
<path d="M333.881 183.528C333.881 183.528 326.065 184.63 326.065 189.031C326.065 189.031 325.739 195.269 333.881 196.004C333.881 196.004 346.257 197.107 348.536 193.436C348.536 193.436 351.397 188.599 347.731 185.575C347.274 185.2 346.742 184.959 346.19 184.825L340.72 183.528" stroke="#6E6C85" stroke-opacity="0.05" stroke-width="3.34229" stroke-miterlimit="10"/>
<path d="M339.839 175.49C344.828 175.49 348.872 170.606 348.872 164.582C348.872 158.558 344.828 153.675 339.839 153.675C334.851 153.675 330.807 158.558 330.807 164.582C330.807 170.606 334.851 175.49 339.839 175.49Z" stroke="#6E6C85" stroke-opacity="0.05" stroke-width="3.34229" stroke-miterlimit="10"/>
<path d="M336.138 173.373C336.138 173.373 333.07 190.373 337.637 190.27C337.637 190.27 341.257 189.968 341.612 174.51" stroke="#6E6C85" stroke-opacity="0.05" stroke-width="3.34229" stroke-miterlimit="10"/>
<path d="M340.3 160.813C340.3 160.813 336.541 161.609 336.896 166.247" stroke="#6E6C85" stroke-opacity="0.05" stroke-width="0.668458" stroke-miterlimit="10"/>
<path d="M0.574312 171.693L0.0413019 5.84761C0.0413019 5.84761 -1.55775 2.62933 15.1433 2.62933H211.292H407.619C407.619 2.62933 422.403 0.239181 423.203 4.77486V171.482" stroke="#6E6C85" stroke-opacity="0.05" stroke-width="3.34229" stroke-miterlimit="10"/>
<path d="M40.7178 166.548C40.7178 166.548 68.2617 77.5521 73.8616 77.2946H347.734C347.734 77.2946 355.729 77.2946 356.439 78.7964L385.044 166.548" stroke="#6E6C85" stroke-opacity="0.05" stroke-width="3.34229" stroke-miterlimit="10"/>
<path d="M0.580078 50.482L420.662 49.402C421.846 49.402 422.934 51.0143 422.046 51.3896L355.647 78.581" stroke="#6E6C85" stroke-opacity="0.05" stroke-width="3.34229" stroke-miterlimit="10"/>
<path d="M74.1262 77.2929L8.74316 50.6885" stroke="#6E6C85" stroke-opacity="0.05" stroke-width="3.34229" stroke-miterlimit="10"/>
<path d="M109.106 18.0762H328.588C331.883 18.0762 335.091 18.6442 337.187 19.7004C338.354 20.2917 339.322 21.0656 339.586 22.062V33.0365C339.586 34.581 338.346 36.099 335.875 37.2549C335.563 37.401 335.227 37.5438 334.867 37.6867C333.187 38.3377 330.931 38.6732 328.636 38.6732H115.209C110.921 38.6732 106.714 38.0786 103.474 36.9161C103.138 36.7932 102.73 36.544 102.323 36.2551C100.955 35.2852 100.083 34.2057 99.6989 33.0929C99.067 31.2628 98.3311 27.7153 98.827 21.7332C98.827 21.7332 98.827 20.8264 100.587 19.82C102.547 18.6973 105.77 18.0795 109.106 18.0795V18.0762Z" stroke="#6E6C85" stroke-opacity="0.05" stroke-width="3.34229" stroke-miterlimit="10"/>
<path d="M359.288 166.448H407.406C407.406 166.448 423.254 168.517 423.254 174.845C423.254 174.845 423.569 256.856 422.899 258.189C422.228 259.522 414.372 258.811 411.175 258.811L20.3672 258.189C20.3672 258.189 0.293917 258.189 0.649192 257.27V173.331C0.649192 173.331 3.55767 166.821 16.3141 166.448H71.6116" stroke="#6E6C85" stroke-opacity="0.05" stroke-width="3.34229" stroke-miterlimit="10" stroke-linecap="round"/>
<path d="M0.580078 205.167H425.214" stroke="#6E6C85" stroke-opacity="0.05" stroke-width="3.34229" stroke-miterlimit="10"/>
<path d="M105.763 166.548L320.389 166.548" stroke="#6E6C85" stroke-opacity="0.05" stroke-width="3.34229" stroke-miterlimit="10" stroke-linecap="round"/>
<path d="M85.5926 183.387C85.5926 183.387 78.5212 185.022 78.3708 188.838C78.3708 188.838 78.0699 195.015 85.5926 195.742C85.5926 195.742 97.0271 196.832 99.1334 193.198C99.1334 193.198 101.992 187.202 97.6289 184.841L91.9116 183.387" stroke="#6E6C85" stroke-opacity="0.05" stroke-width="2.83028" stroke-miterlimit="10"/>
<path d="M88.4616 175.029C93.1979 175.029 97.0375 170.392 97.0375 164.673C97.0375 158.953 93.1979 154.317 88.4616 154.317C83.7253 154.317 79.8857 158.953 79.8857 164.673C79.8857 170.392 83.7253 175.029 88.4616 175.029Z" stroke="#6E6C85" stroke-opacity="0.05" stroke-width="2.83028" stroke-miterlimit="10"/>
<path d="M85.2752 174.301C85.2752 174.301 84.5831 190.805 89.4428 189.821C89.4428 189.821 93.2613 188.836 91.2934 174.301" stroke="#6E6C85" stroke-opacity="0.05" stroke-width="2.83028" stroke-miterlimit="10"/>
<path d="M89.0672 161.404C89.0672 161.404 85.4563 161.041 84.8545 165.401" stroke="#6E6C85" stroke-opacity="0.05" stroke-width="0.566057" stroke-miterlimit="10"/>
<path d="M173.135 189.383C178.84 189.383 183.465 186.192 183.465 182.255C183.465 178.319 178.84 175.127 173.135 175.127C167.43 175.127 162.806 178.319 162.806 182.255C162.806 186.192 167.43 189.383 173.135 189.383Z" stroke="#6E6C85" stroke-opacity="0.05" stroke-width="2.37941" stroke-miterlimit="10"/>
<path d="M183.308 192.439C182.321 194.348 178.683 196.512 172.978 196.512C167.274 196.512 163.538 194.414 162.648 192.439C159.44 185.311 167.274 188.366 172.978 188.366C178.683 188.366 187.267 184.802 183.308 192.439Z" stroke="#6E6C85" stroke-opacity="0.05" stroke-width="2.37941" stroke-miterlimit="10"/>
<path d="M258.056 189.383C263.761 189.383 268.386 186.192 268.386 182.255C268.386 178.319 263.761 175.127 258.056 175.127C252.351 175.127 247.727 178.319 247.727 182.255C247.727 186.192 252.351 189.383 258.056 189.383Z" stroke="#6E6C85" stroke-opacity="0.05" stroke-width="2.37941" stroke-miterlimit="10"/>
<path d="M268.229 192.439C267.242 194.348 263.603 196.512 257.899 196.512C252.194 196.512 248.459 194.414 247.569 192.439C244.361 185.311 252.194 188.366 257.899 188.366C263.603 188.366 272.188 184.802 268.229 192.439Z" stroke="#6E6C85" stroke-opacity="0.05" stroke-width="2.37941" stroke-miterlimit="10"/>
</svg>
