<svg width="37" height="37" viewBox="0 0 37 37" fill="none" xmlns="http://www.w3.org/2000/svg">
<g clip-path="url(#clip0_135_1104)">
<path d="M36.5442 3.45361H34.8115V32.7854H36.5442V3.45361Z" fill="white"/>
<path d="M34.8122 32.7866H33.0908V34.5193H34.8122V32.7866Z" fill="white"/>
<path d="M34.8122 1.72119H33.0908V3.45392H34.8122V1.72119Z" fill="white"/>
<path d="M33.0901 5.17578H31.3574V31.0647H33.0901V5.17578Z" fill="white"/>
<path d="M33.0901 34.519H3.74707V36.2404H33.0901V34.519Z" fill="white"/>
<path d="M31.3581 31.0645H5.48047V32.7859H31.3581V31.0645Z" fill="white"/>
<path d="M26.1821 17.2591H24.4607V15.5264H21.0066V17.2591H19.2852V15.5264H15.8311V25.8887H19.2852V20.7132H21.0066V18.9805H22.7393V20.7132H24.4607V25.8887H27.9148V18.9805H26.1821V17.2591Z" fill="white"/>
<path d="M12.377 15.5264H8.92285V25.8887H12.377V15.5264Z" fill="white"/>
<path d="M12.377 10.3521H8.92285V13.8062H12.377V10.3521Z" fill="white"/>
<path d="M31.3581 3.45361H5.48047V5.17501H31.3581V3.45361Z" fill="white"/>
<path d="M33.0901 0H3.74707V1.7214H33.0901V0Z" fill="white"/>
<path d="M5.4798 5.17578H3.74707V31.0647H5.4798V5.17578Z" fill="white"/>
<path d="M3.74777 32.7866H2.02637V34.5193H3.74777V32.7866Z" fill="white"/>
<path d="M3.74777 1.72119H2.02637V3.45392H3.74777V1.72119Z" fill="white"/>
<path d="M2.02609 3.45361H0.304688V32.7854H2.02609V3.45361Z" fill="white"/>
</g>
<defs>
<clipPath id="clip0_135_1104">
<rect width="36.24" height="36.2405" fill="white" transform="translate(0.304688)"/>
</clipPath>
</defs>
</svg>
