<svg width="81" height="81" viewBox="0 0 81 81" fill="none" xmlns="http://www.w3.org/2000/svg">
<g clip-path="url(#clip0_2013_194)">
<path d="M46.2 8.12499V4.29999H42.4V8.12499H38.6V4.29999H34.775V8.12499H0.5V11.925H4.3V15.75H8.125V53.825H11.925V15.75H69.075V53.825H72.875V15.75H76.675V11.925H80.5V8.12499H46.2Z" fill="white"/>
<path d="M69.075 53.825H65.25V57.65H69.075V53.825Z" fill="white"/>
<path d="M15.7246 57.65V61.45H38.5996V72.875H42.3996V61.45H65.2496V57.65H15.7246Z" fill="white"/>
<path d="M23.3498 46.225V42.4H27.1498V38.6H23.3498V19.55H19.5498V50.025H61.4498V46.225H23.3498Z" fill="white"/>
<path d="M57.6502 23.35H53.8252V27.175H57.6502V23.35Z" fill="white"/>
<path d="M53.8254 27.175H50.0254V30.975H53.8254V27.175Z" fill="white"/>
<path d="M50.0252 30.975H46.2002V34.8H50.0252V30.975Z" fill="white"/>
<path d="M46.2004 72.875H42.4004V76.7H46.2004V72.875Z" fill="white"/>
<path d="M46.2004 34.8H42.4004V38.6H46.2004V34.8Z" fill="white"/>
<path d="M42.3996 76.7H38.5996V80.5H42.3996V76.7Z" fill="white"/>
<path d="M42.3996 38.6H38.5996V42.4H42.3996V38.6Z" fill="white"/>
<path d="M42.3996 0.5H38.5996V4.3H42.3996V0.5Z" fill="white"/>
<path d="M38.6004 72.875H34.7754V76.7H38.6004V72.875Z" fill="white"/>
<path d="M38.6004 34.8H34.7754V38.6H38.6004V34.8Z" fill="white"/>
<path d="M34.7746 30.975H30.9746V34.8H34.7746V30.975Z" fill="white"/>
<path d="M30.9754 34.8H27.1504V38.6H30.9754V34.8Z" fill="white"/>
<path d="M15.7248 53.825H11.9248V57.65H15.7248V53.825Z" fill="white"/>
</g>
<defs>
<clipPath id="clip0_2013_194">
<rect width="80" height="80" fill="white" transform="translate(0.5 0.5)"/>
</clipPath>
</defs>
</svg>
