<svg width="81" height="81" viewBox="0 0 81 81" fill="none" xmlns="http://www.w3.org/2000/svg">
<g clip-path="url(#clip0_2013_272)">
<path d="M17.6502 80.5H63.3502V76.7H67.1752V4.3H63.3502V0.5H17.6502V4.3H13.8252V76.7H17.6502V80.5ZM40.5002 4.3H48.1252V8.125H40.5002V4.3ZM32.8752 4.3H36.7002V8.125H32.8752V4.3ZM17.6502 8.125H29.0752V11.925H51.9252V8.125H63.3502V72.875H17.6502V8.125Z" fill="white"/>
<path d="M56.5005 32.6H54.9805V35.64H56.5005V32.6Z" fill="white"/>
<path d="M51.93 38.69H53.45V44.79H42.79V46.315H44.31V47.835H42.79V49.365H53.45V52.415H54.98V35.64H51.93V38.69ZM47.36 47.83H45.83V46.315H47.36V47.83ZM53.45 47.83H50.4V46.315H53.45V47.83Z" fill="white"/>
<path d="M53.4504 34.12V32.6H54.9804V31.07H51.9304V32.6H50.4004V35.64H51.9304V34.12H53.4504Z" fill="white"/>
<path d="M41.2598 52.41V50.88H39.7398V52.41H27.5498V53.93H53.4498V52.41H41.2598Z" fill="white"/>
<path d="M45.8296 40.21V41.74H47.3596V43.26H48.8796V41.74H50.3996V40.21H51.9296V38.69H50.3996V37.17H48.8796V35.64H47.3596V37.17H45.8296V38.69H44.3096V40.21H45.8296Z" fill="white"/>
<path d="M44.31 37.17H42.79V38.69H44.31V37.17Z" fill="white"/>
<path d="M44.31 28.02H42.79V32.6H44.31V28.02Z" fill="white"/>
<path d="M42.7898 49.36H41.2598V50.88H42.7898V49.36Z" fill="white"/>
<path d="M42.7898 43.26H41.2598V44.79H42.7898V43.26Z" fill="white"/>
<path d="M42.7898 35.64H41.2598V37.17H42.7898V35.64Z" fill="white"/>
<path d="M41.2602 46.31H39.7402V47.83H41.2602V46.31Z" fill="white"/>
<path d="M41.2602 41.74H39.7402V43.26H41.2602V41.74Z" fill="white"/>
<path d="M41.26 34.12H42.79V32.6H38.21V34.12H39.74V35.64H41.26V34.12Z" fill="white"/>
<path d="M41.2602 29.55H39.7402V31.07H41.2602V29.55Z" fill="white"/>
<path d="M42.79 26.5H38.21V28.02H42.79V26.5Z" fill="white"/>
<path d="M39.74 49.36H38.21V50.88H39.74V49.36Z" fill="white"/>
<path d="M39.74 43.26H38.21V44.79H39.74V43.26Z" fill="white"/>
<path d="M39.74 35.64H38.21V37.17H39.74V35.64Z" fill="white"/>
<path d="M38.2104 37.17H36.6904V38.69H38.2104V37.17Z" fill="white"/>
<path d="M38.2104 28.02H36.6904V32.6H38.2104V28.02Z" fill="white"/>
<path d="M30.6003 40.21V41.74H32.1203V43.26H33.6403V41.74H35.1703V40.21H36.6903V38.69H35.1703V37.17H33.6403V35.64H32.1203V37.17H30.6003V38.69H29.0703V40.21H30.6003Z" fill="white"/>
<path d="M27.5495 34.12H29.0695V35.64H30.5995V32.6H29.0695V31.07H26.0195V32.6H27.5495V34.12Z" fill="white"/>
<path d="M38.2095 49.36V47.83H36.6895V46.315H38.2095V44.795H27.5495V38.695H29.0695V35.645H26.0195V52.415H27.5495V49.365L38.2095 49.36ZM33.6395 46.315H35.1695V47.835H33.6395V46.315ZM27.5495 46.315H30.5995V47.835H27.5495V46.315Z" fill="white"/>
<path d="M26.02 32.6H24.5V35.64H26.02V32.6Z" fill="white"/>
</g>
<defs>
<clipPath id="clip0_2013_272">
<rect width="80" height="80" fill="white" transform="translate(0.5 0.5)"/>
</clipPath>
</defs>
</svg>
