<svg width="77" height="81" viewBox="0 0 77 81" fill="none" xmlns="http://www.w3.org/2000/svg">
<path d="M76.5871 38.6H72.7871V61.45H76.5871V38.6Z" fill="white"/>
<path d="M72.7873 34.8H68.9873V38.6H72.7873V34.8Z" fill="white"/>
<path d="M68.9873 46.225H65.1623V53.825H53.7373V46.225H49.9373V61.45H46.1123V65.275H49.9373V80.5H57.5623V69.075H61.3623V80.5H68.9873V65.275H72.7873V61.45H68.9873V46.225Z" fill="white"/>
<path d="M68.9871 30.975H65.1621V34.8H68.9871V30.975Z" fill="white"/>
<path d="M68.9871 23.35H65.1621V27.175H68.9871V23.35Z" fill="white"/>
<path d="M61.3625 34.8H57.5625V46.225H61.3625V34.8Z" fill="white"/>
<path d="M65.1623 27.175H53.7373V30.975H65.1623V27.175Z" fill="white"/>
<path d="M53.7375 30.975H49.9375V34.8H53.7375V30.975Z" fill="white"/>
<path d="M53.7375 23.35H49.9375V27.175H53.7375V23.35Z" fill="white"/>
<path d="M49.9373 34.8H46.1123V38.6H49.9373V34.8Z" fill="white"/>
<path d="M53.7373 15.75V11.925H65.1623V15.75H68.9873V23.35H72.7873V8.125H68.9873V4.3H65.1623V0.5H53.7373V4.3H49.9373V8.125H46.1123V23.35H49.9373V15.75H53.7373Z" fill="white"/>
<path d="M46.1125 38.6H42.3125V61.45H46.1125V38.6Z" fill="white"/>
<path d="M42.3117 69.075H38.5117V72.875H42.3117V69.075Z" fill="white"/>
<path d="M42.3117 8.125H38.5117V11.925H42.3117V8.125Z" fill="white"/>
<path d="M38.5117 65.275H30.8867V69.075H38.5117V65.275Z" fill="white"/>
<path d="M38.5117 11.925H30.8867V15.75H38.5117V11.925Z" fill="white"/>
<path d="M42.3117 0.5H30.8867V4.3H42.3117V0.5Z" fill="white"/>
<path d="M42.3117 76.7H30.8867V80.5H42.3117V76.7Z" fill="white"/>
<path d="M8.03711 57.65V65.275H11.8371V61.45H27.0621V65.275H30.8871V61.45H34.6871V57.65H23.2621V50.025H19.4621V57.65H8.03711Z" fill="white"/>
<path d="M30.8867 4.29999H23.2617V8.12499H30.8867V4.29999Z" fill="white"/>
<path d="M30.8867 72.875H23.2617V76.7H30.8867V72.875Z" fill="white"/>
<path d="M23.2617 8.125H15.6367V11.925H23.2617V8.125Z" fill="white"/>
<path d="M23.2617 69.075H15.6367V72.875H23.2617V69.075Z" fill="white"/>
<path d="M15.6369 65.275H11.8369V69.075H15.6369V65.275Z" fill="white"/>
<path d="M8.03711 23.35H19.4621V30.975H23.2621V23.35H42.3121V19.55H30.8871V15.75H27.0621V19.55H11.8371V15.75H8.03711V23.35Z" fill="white"/>
<path d="M15.6369 11.925H11.8369V15.75H15.6369V11.925Z" fill="white"/>
<path d="M8.03691 50.025H4.21191V57.65H8.03691V50.025Z" fill="white"/>
<path d="M8.03691 23.35H4.21191V30.975H8.03691V23.35Z" fill="white"/>
<path d="M15.6371 38.6H4.21211V30.975H0.412109V50.025H4.21211V42.4H15.6371V50.025H19.4621V42.4H34.6871V38.6H19.4621V30.975H15.6371V38.6Z" fill="white"/>
</svg>
