<svg width="81" height="81" viewBox="0 0 81 81" fill="none" xmlns="http://www.w3.org/2000/svg">
<g clip-path="url(#clip0_2013_302)">
<path d="M80.5002 19.55H76.7002V23.35H80.5002V19.55Z" fill="white"/>
<path d="M69.0746 38.6V42.4H61.4746V46.225H69.0746V69.075H53.8496V72.875H69.0746V76.7H80.4996V38.6H69.0746Z" fill="white"/>
<path d="M76.7004 23.35H72.9004V27.175H76.7004V23.35Z" fill="white"/>
<path d="M72.9002 19.55H69.0752V23.35H72.9002V19.55Z" fill="white"/>
<path d="M69.0754 23.35H65.2754V27.175H69.0754V23.35Z" fill="white"/>
<path d="M69.0754 4.32501H65.2754V8.12501H69.0754V4.32501Z" fill="white"/>
<path d="M65.2746 19.55H61.4746V23.35H65.2746V19.55Z" fill="white"/>
<path d="M61.4754 38.6H57.6504V42.4H61.4754V38.6Z" fill="white"/>
<path d="M57.6496 34.8H53.8496V38.6H57.6496V34.8Z" fill="white"/>
<path d="M53.8498 57.65H50.0248V65.275H42.4248V72.875H46.2248V69.075H53.8498V57.65Z" fill="white"/>
<path d="M50.0246 53.85H46.2246V57.65H50.0246V53.85Z" fill="white"/>
<path d="M50.0246 8.125H46.2246V11.925H50.0246V8.125Z" fill="white"/>
<path d="M46.2248 50.025H42.4248V53.85H46.2248V50.025Z" fill="white"/>
<path d="M46.2248 42.4H42.4248V46.225H46.2248V42.4Z" fill="white"/>
<path d="M53.8496 30.975H38.5996V34.8H53.8496V30.975Z" fill="white"/>
<path d="M46.2248 11.925H42.4248V15.75H46.2248V11.925Z" fill="white"/>
<path d="M46.2248 4.32501H42.4248V8.12501H46.2248V4.32501Z" fill="white"/>
<path d="M42.4246 61.45H38.5996V65.275H42.4246V61.45Z" fill="white"/>
<path d="M42.4246 46.225H38.5996V50.025H42.4246V46.225Z" fill="white"/>
<path d="M42.4246 8.125H38.5996V11.925H42.4246V8.125Z" fill="white"/>
<path d="M34.8 76.7H23.375V80.5H38.6V76.7H42.425V72.875H34.8V76.7Z" fill="white"/>
<path d="M38.5998 34.8H34.7998V38.6H38.5998V34.8Z" fill="white"/>
<path d="M34.7996 69.075H30.9746V72.875H34.7996V69.075Z" fill="white"/>
<path d="M38.5996 50.025H30.9746V53.85H38.5996V50.025Z" fill="white"/>
<path d="M34.7996 38.6H30.9746V42.4H34.7996V38.6Z" fill="white"/>
<path d="M34.7998 30.975H27.1748V34.8H34.7998V30.975Z" fill="white"/>
<path d="M30.9748 65.275H27.1748V69.075H30.9748V65.275Z" fill="white"/>
<path d="M30.9748 42.4H27.1748V50.025H30.9748V42.4Z" fill="white"/>
<path d="M30.9748 15.75H27.1748V19.55H30.9748V15.75Z" fill="white"/>
<path d="M27.175 34.8H23.375V38.6H27.175V34.8Z" fill="white"/>
<path d="M23.3748 72.875H19.5498V76.7H23.3748V72.875Z" fill="white"/>
<path d="M23.3748 38.6H19.5498V42.4H23.3748V38.6Z" fill="white"/>
<path d="M11.95 69.075V46.225H19.55V42.4H11.95V38.6H0.5V76.7H11.95V72.875H19.55V69.075H11.95Z" fill="white"/>
<path d="M19.55 0.5H15.75V4.325H19.55V0.5Z" fill="white"/>
<path d="M11.9502 30.975V27.175H15.7502V23.35H11.9502V19.55H8.1252V23.35H4.3252V27.175H8.1252V30.975H11.9502Z" fill="white"/>
</g>
<defs>
<clipPath id="clip0_2013_302">
<rect width="80" height="80" fill="white" transform="translate(0.5 0.5)"/>
</clipPath>
</defs>
</svg>
