<svg width="81" height="81" viewBox="0 0 81 81" fill="none" xmlns="http://www.w3.org/2000/svg">
<g clip-path="url(#clip0_2013_100)">
<path d="M76.675 11.925H72.875V8.125H69.05V4.3H65.25V0.5H8.1V15.75H11.925V19.55H15.725V15.75H61.45V19.55H65.25V57.65H61.45V61.45H57.625V65.25H8.1V61.45H4.3V65.25H0.5V80.5H4.3V69.075H53.825V80.5H80.5V15.75H76.675V11.925ZM15.725 11.925H11.925V4.3H15.725V11.925ZM23.35 11.925H19.525V4.3H23.35V11.925ZM57.625 11.925H27.15V4.3H57.625V11.925ZM76.675 38.6H72.875V19.55H69.05V15.75H65.25V11.925H61.45V8.125H65.25V11.925H69.05V15.75H72.875V19.55H76.675V38.6Z" fill="white"/>
<path d="M53.825 38.6H50V42.4H53.825V38.6Z" fill="white"/>
<path d="M53.8254 57.65H42.4004V61.45H53.8254V57.65Z" fill="white"/>
<path d="M50.0002 30.975H46.2002V34.775H50.0002V30.975Z" fill="white"/>
<path d="M50.0002 80.5V72.875H38.5752V80.5H42.4002V76.7H46.2002V80.5H50.0002Z" fill="white"/>
<path d="M50.0004 42.4H34.7754V46.225H50.0004V42.4Z" fill="white"/>
<path d="M38.5754 30.975H34.7754V34.775H38.5754V30.975Z" fill="white"/>
<path d="M34.7746 38.6H30.9746V42.4H34.7746V38.6Z" fill="white"/>
<path d="M30.9754 57.65H27.1504V61.45H30.9754V57.65Z" fill="white"/>
<path d="M61.4496 53.825V23.35H23.3496V53.825H61.4496ZM27.1496 27.175H57.6246V50.025H27.1496V27.175Z" fill="white"/>
<path d="M23.3504 57.65H19.5254V61.45H23.3504V57.65Z" fill="white"/>
<path d="M19.5246 19.55H15.7246V53.825H19.5246V19.55Z" fill="white"/>
<path d="M15.7248 53.825H11.9248V57.65H15.7248V53.825Z" fill="white"/>
<path d="M11.9246 57.65H8.09961V61.45H11.9246V57.65Z" fill="white"/>
</g>
<defs>
<clipPath id="clip0_2013_100">
<rect width="80" height="80" fill="white" transform="translate(0.5 0.5)"/>
</clipPath>
</defs>
</svg>
