<svg width="81" height="81" viewBox="0 0 81 81" fill="none" xmlns="http://www.w3.org/2000/svg">
<path d="M80.4998 72.875H76.6748V76.7H80.4998V72.875Z" fill="white"/>
<path d="M76.6752 4.29999H72.8752V8.12499H69.0752V11.925H72.8752V15.75H76.6752V11.925H80.5002V8.12499H76.6752V4.29999Z" fill="white"/>
<path d="M76.675 57.65H72.875V61.45H76.675V57.65Z" fill="white"/>
<path d="M72.8752 61.45H69.0752V65.275H72.8752V61.45Z" fill="white"/>
<path d="M72.8752 53.825H69.0752V57.65H72.8752V53.825Z" fill="white"/>
<path d="M72.8752 38.6H69.0752V42.4H72.8752V38.6Z" fill="white"/>
<path d="M72.8752 23.35H69.0752V27.175H72.8752V23.35Z" fill="white"/>
<path d="M69.075 57.65H65.25V61.45H69.075V57.65Z" fill="white"/>
<path d="M69.075 42.4H65.25V46.225H69.075V42.4Z" fill="white"/>
<path d="M69.075 19.55H65.25V23.35H69.075V19.55Z" fill="white"/>
<path d="M65.2502 46.225H61.4502V50.025H65.2502V46.225Z" fill="white"/>
<path d="M65.2502 15.75H61.4502V19.55H65.2502V15.75Z" fill="white"/>
<path d="M61.4502 80.5V76.7H65.2502V72.875H61.4502V69.075H57.6252V72.875H53.8252V76.7H57.6252V80.5H61.4502Z" fill="white"/>
<path d="M61.45 50.025H57.625V53.825H61.45V50.025Z" fill="white"/>
<path d="M57.6252 53.825H53.8252V57.65H57.6252V53.825Z" fill="white"/>
<path d="M57.6252 38.6H53.8252V42.4H57.6252V38.6Z" fill="white"/>
<path d="M57.6252 23.35H53.8252V27.175H57.6252V23.35Z" fill="white"/>
<path d="M57.6252 4.29999H53.8252V8.12499H57.6252V4.29999Z" fill="white"/>
<path d="M53.8254 57.65H50.0254V61.45H53.8254V57.65Z" fill="white"/>
<path d="M53.8254 42.4H50.0254V50.025H53.8254V42.4Z" fill="white"/>
<path d="M53.8254 19.55H50.0254V23.35H53.8254V19.55Z" fill="white"/>
<path d="M50.0252 50.025H46.2002V57.65H50.0252V50.025Z" fill="white"/>
<path d="M46.2004 57.65H42.4004V69.075H46.2004V65.275H50.0254V61.45H46.2004V57.65Z" fill="white"/>
<path d="M46.2004 0.5H42.4004V4.3H46.2004V0.5Z" fill="white"/>
<path d="M42.4004 69.075H34.7754V72.875H42.4004V69.075Z" fill="white"/>
<path d="M34.7754 57.65H30.9754V61.45H27.1504V65.275H30.9754V69.075H34.7754V57.65Z" fill="white"/>
<path d="M30.9754 50.025H27.1504V57.65H30.9754V50.025Z" fill="white"/>
<path d="M27.1496 57.65H23.3496V61.45H27.1496V57.65Z" fill="white"/>
<path d="M27.1496 42.4H23.3496V50.025H27.1496V42.4Z" fill="white"/>
<path d="M27.1496 19.55H23.3496V23.35H27.1496V19.55Z" fill="white"/>
<path d="M27.1496 4.29999H23.3496V8.12499H27.1496V4.29999Z" fill="white"/>
<path d="M23.3498 69.075H19.5498V72.875H23.3498V69.075Z" fill="white"/>
<path d="M23.3498 53.825H19.5498V57.65H23.3498V53.825Z" fill="white"/>
<path d="M23.3498 38.6H19.5498V42.4H23.3498V38.6Z" fill="white"/>
<path d="M23.3498 23.35H19.5498V27.175H23.3498V23.35Z" fill="white"/>
<path d="M27.1496 15.75V19.55H30.9746V15.75H46.1996V19.55H50.0246V15.75H61.4496V11.925H15.7246V15.75H27.1496Z" fill="white"/>
<path d="M19.5496 50.025H15.7246V53.825H19.5496V50.025Z" fill="white"/>
<path d="M15.7248 46.225H11.9248V50.025H15.7248V46.225Z" fill="white"/>
<path d="M15.7248 15.75H11.9248V19.55H15.7248V15.75Z" fill="white"/>
<path d="M11.9246 61.45H8.09961V65.275H11.9246V61.45Z" fill="white"/>
<path d="M11.9246 42.4H8.09961V46.225H11.9246V42.4Z" fill="white"/>
<path d="M11.9246 19.55H8.09961V23.35H11.9246V19.55Z" fill="white"/>
<path d="M8.0998 76.7H4.2998V80.5H8.0998V76.7Z" fill="white"/>
<path d="M8.0998 65.275H4.2998V69.075H8.0998V65.275Z" fill="white"/>
<path d="M8.0998 57.65H4.2998V61.45H8.0998V57.65Z" fill="white"/>
<path d="M8.0998 38.6H4.2998V42.4H8.0998V38.6Z" fill="white"/>
<path d="M4.3 34.775H15.725V38.6H19.55V34.775H57.625V38.6H61.45V34.775H72.875V38.6H76.675V27.175H72.875V30.975H61.45V27.175H57.625V30.975H19.55V27.175H15.725V30.975H4.3V27.175H0.5V38.6H4.3V34.775Z" fill="white"/>
<path d="M8.0998 23.35H4.2998V27.175H8.0998V23.35Z" fill="white"/>
<path d="M4.3 11.925H8.1V8.125H11.925V4.3H8.1V0.5H4.3V4.3H0.5V8.125H4.3V11.925Z" fill="white"/>
<path d="M4.3 61.45H0.5V65.275H4.3V61.45Z" fill="white"/>
</svg>
