<svg width="20" height="20" viewBox="0 0 20 20" fill="none" xmlns="http://www.w3.org/2000/svg">
<path d="M18.1904 11.5L11.6004 4.91C11.4704 4.78002 11.3161 4.6769 11.1462 4.60656C10.9764 4.53621 10.7944 4.5 10.6106 4.5C10.4267 4.5 10.2447 4.53621 10.0749 4.60656C9.90502 4.6769 9.7507 4.78002 9.62072 4.91C9.49073 5.03999 9.38762 5.19431 9.31727 5.36414C9.24692 5.53398 9.21071 5.71601 9.21071 5.89984C9.21071 6.08367 9.24692 6.2657 9.31727 6.43554C9.38762 6.60537 9.49073 6.75969 9.62072 6.88968L12.831 10.1H2.21025C1.83893 10.1 1.48282 10.2475 1.22026 10.5101C0.957699 10.7726 0.810196 11.1287 0.810196 11.5C0.810196 11.8714 0.957699 12.2275 1.22026 12.49C1.48282 12.7526 1.83893 12.9001 2.21025 12.9001L12.831 12.9001L9.62072 16.1104C9.49025 16.2401 9.38672 16.3944 9.31607 16.5642C9.24542 16.7341 9.20905 16.9163 9.20905 17.1002C9.20905 17.2842 9.24542 17.4664 9.31607 17.6363C9.38672 17.8061 9.49025 17.9604 9.62072 18.0901C9.88327 18.3526 10.2393 18.5 10.6106 18.5C10.9818 18.5 11.3378 18.3526 11.6004 18.0901L18.1904 11.5Z" fill="black"/>
</svg>
