<?xml version="1.0" encoding="UTF-8"?>
<!-- Created with Inkscape (http://www.inkscape.org/) -->
<svg width="1122.5" height="430.67" version="1.1" viewBox="0 0 1122.5 430.67" xml:space="preserve" xmlns="http://www.w3.org/2000/svg"><defs><clipPath id="clipPath20"><path d="M 0,323 H 841.89 V 0 H 0 Z"/></clipPath></defs><g transform="matrix(1.3333 0 0 -1.3333 0 430.67)"><g transform="translate(91.997 187.23)"><path d="m0 0 20.496-20.496 58.046 58.047-20.496 20.496z" fill="#231f20"/></g><g clip-path="url(#clipPath20)"><g transform="translate(131.27 148.25)"><path d="m0 0c-31.846 0-57.755 25.909-57.755 57.755 0 31.842 25.909 57.752 57.755 57.752 31.842 0 57.752-25.91 57.752-57.752 0-31.846-25.91-57.755-57.752-57.755m0 147.21c-49.329 0-89.46-40.131-89.46-89.457 0-49.329 40.131-89.46 89.46-89.46 49.326 0 89.457 40.131 89.457 89.46 0 49.326-40.131 89.457-89.457 89.457" fill="#231f20"/></g><g transform="translate(327.05 148.25)"><path d="m0 0c-31.846 0-57.755 25.909-57.755 57.755 0 31.842 25.909 57.752 57.755 57.752 26.602 0 49.051-18.089 55.723-42.608h-55.982v-30.291h55.981c-6.672-24.52-29.12-42.608-55.722-42.608m89.457 57.755c0 49.326-40.131 89.457-89.457 89.457-49.329 0-89.46-40.131-89.46-89.457 0-49.329 40.131-89.46 89.46-89.46 49.326 0 89.457 40.131 89.457 89.46" fill="#231f20"/></g><g transform="translate(481.94 246.84)"><path d="m0 0c22.516 22.516 59.157 22.516 81.676-2e-3 18.81-18.811 21.893-47.475 9.273-69.531l-38.93 38.931-21.419-21.419 38.93-38.93c-22.056-12.62-50.72-9.537-69.53 9.273-22.518 22.518-22.518 59.16 0 81.678m104.1-104.1c34.878 34.879 34.878 91.633 0 126.51-34.881 34.881-91.635 34.881-126.51 2e-3 -34.881-34.881-34.881-91.635 0-126.52 34.879-34.879 91.633-34.879 126.51 2e-3" fill="#231f20"/></g><g transform="translate(660.85 206)"><path d="m0 0c0 31.842 25.909 57.752 57.755 57.752s57.755-25.91 57.755-57.752c0-31.846-25.909-57.755-57.755-57.755s-57.755 25.909-57.755 57.755m147.22 0c0 49.326-40.131 89.457-89.46 89.457s-89.46-40.131-89.46-89.457c0-49.329 40.131-89.46 89.46-89.46s89.46 40.131 89.46 89.46" fill="#231f20"/></g><g transform="translate(371.54 74.149)"><path d="m0 0v11.513h-42.359v-10.428h26.824l-28.129-30.193v-11.513h44.966v10.644h-29.541z" fill="#231f20"/></g><g transform="translate(392.8 64.807)"><path d="m0 0c0.29 3.696 1.791 6.715 4.508 9.069s6.029 3.532 9.938 3.532c2.097 0 3.925-0.346 5.483-1.032 1.558-0.689 2.843-1.614 3.859-2.77 1.012-1.158 1.754-2.5 2.224-4.018 0.469-1.522 0.706-3.116 0.706-4.781zm32.584 15.262c-2.244 2.35-4.907 4.128-7.984 5.32-3.076 1.195-6.425 1.794-10.044 1.794-3.912 0-7.551-0.672-10.917-2.011-3.366-1.341-6.282-3.222-8.743-5.646-2.464-2.427-4.398-5.36-5.809-8.8-1.415-3.439-2.121-7.257-2.121-11.456 0-4.274 0.706-8.093 2.121-11.459 1.411-3.366 3.366-6.209 5.862-8.526 2.497-2.318 5.447-4.112 8.853-5.377 3.403-1.265 7.131-1.901 11.187-1.901 9.774 0 17.232 3.476 22.372 10.427l-8.686 6.952c-1.451-2.101-3.296-3.749-5.54-4.941-2.247-1.195-4.997-1.794-8.256-1.794-1.881 0-3.693 0.326-5.43 0.978-1.738 0.653-3.296 1.538-4.668 2.66-1.378 1.122-2.484 2.461-3.313 4.019-0.835 1.558-1.325 3.276-1.468 5.16h39.642c0.073 0.58 0.11 1.156 0.11 1.738v1.738c0 4.704-0.636 8.813-1.901 12.325-1.269 3.513-3.023 6.446-5.267 8.8" fill="#231f20"/></g><g transform="translate(533.96 53.73)"><path d="m0 0c-0.616-2.028-1.538-3.839-2.77-5.43-1.232-1.595-2.787-2.897-4.668-3.912-1.884-1.015-4.128-1.518-6.735-1.518s-4.851 0.503-6.735 1.518c-1.881 1.015-3.439 2.317-4.668 3.912-1.235 1.591-2.157 3.402-2.77 5.43-0.616 2.024-0.925 4.055-0.925 6.083 0 2.024 0.309 4.035 0.925 6.026 0.613 1.991 1.535 3.782 2.77 5.376 1.229 1.592 2.787 2.88 4.668 3.856 1.884 0.979 4.128 1.468 6.735 1.468s4.851-0.489 6.735-1.468c1.881-0.976 3.436-2.264 4.668-3.856 1.232-1.594 2.154-3.385 2.77-5.376s0.922-4.002 0.922-6.026c0-2.028-0.306-4.059-0.922-6.083m5.919 25.959c-2.533 2.387-5.539 4.234-9.015 5.536-3.473 1.305-7.168 1.958-11.077 1.958-3.908 0-7.604-0.653-11.08-1.958-3.476-1.302-6.479-3.149-9.012-5.536-2.537-2.391-4.545-5.271-6.029-8.637-1.485-3.366-2.228-7.114-2.228-11.239 0-4.129 0.743-7.894 2.228-11.297 1.484-3.406 3.492-6.319 6.029-8.742 2.533-2.428 5.536-4.329 9.012-5.704s7.172-2.064 11.08-2.064c3.909 0 7.604 0.689 11.077 2.064 3.476 1.375 6.482 3.276 9.015 5.704 2.534 2.423 4.545 5.336 6.03 8.742 1.481 3.403 2.224 7.168 2.224 11.297 0 4.125-0.743 7.873-2.224 11.239-1.485 3.366-3.496 6.246-6.03 8.637" fill="#231f20"/></g><path d="m574.4 33.528h13.067v51.877h-13.067z" fill="#231f20"/><g transform="translate(734.32 54.31)"><path d="m0 0c-1.843-6.627-7.057-10.904-14.134-10.904-8.255 0-14.29 6.895-14.29 16.571 0 9.194 6.158 16.208 14.413 16.208 6.978 0 12.171-4.352 14.011-11.008 0.467-1.687 0.773-3.485 0.773-5.443 0-1.955-0.306-3.746-0.773-5.424m0 25.17c-5.16 5.18-9.713 7.23-16.228 7.23-13.922 0-24.391-11.493-24.391-26.733 0-15.604 10.469-27.097 24.762-27.097 6.269 0 10.33 1.812 15.857 6.868v-6.743h12.676v52.827h-12.676z" fill="#231f20"/></g><g transform="translate(594.83 75.247)"><path d="m0 0h15.438v-42.203h13.067v42.203h15.072v10.237h-43.577z" fill="#231f20"/></g><g transform="translate(672.4 85.382)"><path d="m0 0h-13.034v-52.28h33.15v10.348h-20.116z" fill="#231f20"/></g><g transform="translate(784.63 43.951)"><path d="m0 0c-1.501-0.861-3.565-1.26-6.494-1.26h-8.013v12.425h7.484c3.955 0 5.39-0.269 7.011-1.326 1.633-0.979 2.571-2.747 2.571-4.849 0-2.16-0.983-4.073-2.559-4.99m-14.507 31.755h6.726c4.512 0 6.705-1.895 6.705-5.795 0-3.85-2.243-5.722-6.856-5.722h-6.575zm19.727-14.476c1.061 0.753 1.702 1.389 2.344 2.268 1.249 1.907 2.024 4.799 2.024 7.549 0 4.438-1.857 8.651-4.843 10.989-2.75 2.183-6.825 3.199-12.828 3.199h-17.846v-52.072h22.39c5.874 0 10.037 1.317 13.089 4.136 3.008 2.684 4.732 6.679 4.732 10.963 0 3.818-1.444 7.589-3.883 10.107-1.472 1.408-2.863 2.202-5.179 2.861" fill="#231f20"/></g><g transform="translate(466.31 63.123)"><path d="m0 0c-1.329-1-3.404-1.513-6.151-1.513h-2.986v14.113h2.986c2.588 0 4.717-0.523 6.154-1.513 1.664-1.228 2.821-3.504 2.821-5.544 0-2.058-1.215-4.441-2.824-5.543m4.842-8.246c3.188 0.798 4.851 1.579 6.603 3.101 2.911 2.528 4.72 6.93 4.72 11.486 0 4.297-1.616 8.466-4.43 11.437-3.007 3.163-6.947 4.573-12.778 4.573h-21.036v-52.373h12.942v21.469l13.84-21.469h16.125l-16.627 21.617z" fill="#231f20"/></g></g></g></svg>
